<svg width="54" height="55" viewBox="0 0 54 55" fill="none" xmlns="http://www.w3.org/2000/svg">
<path d="M52.5301 35.86L43.6401 35.88L48.9301 43.02L40.4301 40.42L43.3801 48.8L36.0301 43.81L36.3801 52.69L30.8301 45.75L28.5501 54.34L25.2901 46.07L20.5801 53.61L19.9001 44.75L13.1801 50.56L15.1401 41.89L7.00012 45.46L11.4301 37.76L2.60013 38.78L9.10013 32.72L0.370117 31.09L8.37012 27.22L0.500122 23.09L9.28012 21.75L2.98012 15.48L11.7701 16.79L7.60013 8.94004L15.6101 12.78L13.9401 4.05004L20.4701 10.08L21.4401 1.25004L25.9001 8.94004L29.4301 0.790039L31.4301 9.45004L37.2101 2.70004L36.5601 11.56L44.0701 6.81004L40.8401 15.09L49.4201 12.77L43.8901 19.73L52.7701 20.04L45.4401 25.06L53.8301 27.98L45.3401 30.62L52.5001 35.88L52.5301 35.86Z" fill="#1D1D1B"/>
</svg>
