<svg width="52" height="53" viewBox="0 0 52 53" fill="none" xmlns="http://www.w3.org/2000/svg">
<path d="M25.8799 52.19C11.7099 52.19 0.179932 40.66 0.179932 26.4901C0.179932 12.3201 11.7099 0.790039 25.8799 0.790039H51.5799V26.4901C51.5799 40.66 40.0499 52.19 25.8799 52.19ZM25.8799 8.49005C15.9499 8.49005 7.87994 16.5701 7.87994 26.4901C7.87994 36.41 15.9599 44.4901 25.8799 44.4901C35.7999 44.4901 43.8799 36.41 43.8799 26.4901V8.49005H25.8799ZM19.2999 26.4901H11.5999C11.5999 18.6201 17.9999 12.22 25.8699 12.22V19.91C22.2399 19.91 19.2899 22.8601 19.2899 26.4901H19.2999Z" fill="#1D1D1B"/>
</svg>
