<svg width="53" height="53" viewBox="0 0 53 53" fill="none" xmlns="http://www.w3.org/2000/svg">
<path d="M52.43 26.5799C52.43 30.2899 51.32 33.8599 49.22 36.8999C47.48 39.4199 45.17 41.4399 42.46 42.8099C41.09 45.5099 39.07 47.8299 36.55 49.5699C33.51 51.6699 29.94 52.7799 26.23 52.7799C22.52 52.7799 18.95 51.6699 15.91 49.5699C13.39 47.8299 11.37 45.5199 10 42.8099C7.30003 41.4399 4.98003 39.4199 3.24003 36.8999C1.14003 33.8599 0.0300293 30.2899 0.0300293 26.5799C0.0300293 22.8699 1.14003 19.2999 3.24003 16.2599C4.98003 13.7399 7.29003 11.7199 10 10.3499C11.37 7.64988 13.39 5.32988 15.91 3.58988C18.95 1.48988 22.52 0.379883 26.23 0.379883C29.94 0.379883 33.51 1.48988 36.55 3.58988C39.07 5.32988 41.09 7.63988 42.46 10.3499C45.16 11.7199 47.48 13.7399 49.22 16.2599C51.32 19.2999 52.43 22.8699 52.43 26.5799ZM38.13 36.3299C42.14 34.7299 44.73 30.8999 44.73 26.5799C44.73 22.2599 42.14 18.4299 38.13 16.8299L36.6 16.2199L35.99 14.6899C34.39 10.6799 30.56 8.08988 26.24 8.08988C21.92 8.08988 18.09 10.6799 16.49 14.6899L15.88 16.2199L14.35 16.8299C10.34 18.4299 7.75003 22.2599 7.75003 26.5799C7.75003 30.8999 10.34 34.7299 14.35 36.3299L15.88 36.9399L16.49 38.4699C18.09 42.4799 21.92 45.0699 26.24 45.0699C30.56 45.0699 34.39 42.4799 35.99 38.4699L36.6 36.9399L38.13 36.3299ZM36.11 23.4999C37.07 23.8799 38.2 24.9199 38.2 26.5799C38.2 28.2399 37.08 29.2699 36.12 29.6599L31.26 31.5999L29.32 36.4599C28.94 37.4199 27.9 38.5399 26.24 38.5399C24.58 38.5399 23.54 37.4199 23.16 36.4599L21.22 31.5999L16.36 29.6599C15.4 29.2799 14.28 28.2399 14.28 26.5799C14.28 24.9199 15.4 23.8799 16.37 23.4999L21.23 21.5599L23.17 16.6999C23.55 15.7399 24.59 14.6099 26.25 14.6099C27.91 14.6099 28.95 15.7299 29.33 16.6999L31.27 21.5599L36.12 23.4999H36.11Z" fill="#1D1D1B"/>
</svg>
