<svg width="79" height="55" viewBox="0 0 79 55" fill="none" xmlns="http://www.w3.org/2000/svg">
<path d="M27.33 46.84V54.53C12.29 54.53 0.0600586 42.3 0.0600586 27.26C0.0600586 12.22 12.29 0 27.33 0C42.37 0 54.6001 12.23 54.6001 27.27H46.9101C46.9101 16.48 38.13 7.69 27.33 7.69C16.53 7.69 7.76007 16.47 7.76007 27.27C7.76007 38.07 16.54 46.85 27.33 46.85V46.84ZM78.0201 27.26C78.0201 42.3 65.7901 54.53 50.7501 54.53C35.7101 54.53 23.4801 42.3 23.4801 27.26H31.1701C31.1701 38.05 39.9501 46.84 50.7501 46.84C61.5501 46.84 70.33 38.06 70.33 27.26C70.33 16.46 61.5501 7.68 50.7501 7.68V0C65.7901 0 78.0201 12.23 78.0201 27.27V27.26Z" fill="#1D1D1B"/>
</svg>
