<svg width="52" height="53" viewBox="0 0 52 53" fill="none" xmlns="http://www.w3.org/2000/svg">
<path d="M25.71 52.19C11.54 52.19 0.0100098 40.66 0.0100098 26.4901V0.790039H25.71C39.88 0.790039 51.41 12.3201 51.41 26.4901C51.41 40.66 39.88 52.19 25.71 52.19ZM7.70999 8.49005V26.4901C7.70999 36.4201 15.79 44.4901 25.71 44.4901C35.63 44.4901 43.71 36.41 43.71 26.4901C43.71 16.5701 35.63 8.49005 25.71 8.49005H7.70999ZM25.71 40.7701C17.84 40.7701 11.44 34.37 11.44 26.5H19.13C19.13 30.13 22.08 33.08 25.71 33.08V40.7701Z" fill="#1D1D1B"/>
</svg>
