<svg width="81" height="81" viewBox="0 0 81 81" fill="none" xmlns="http://www.w3.org/2000/svg">
<path d="M32.7598 11.0185C32.7598 4.56222 27.9077 0 20.7616 0H7.74022L0 35.9213H7.77323L10.2653 24.7381H17.3123C26.3233 24.6887 32.7433 19.5665 32.7433 11.0185M24.739 11.5785C24.739 15.8442 21.5208 18.0512 17.2463 18.0512H11.6681L14.1436 6.75274H18.9297C22.9236 6.75274 24.739 8.71269 24.739 11.595" fill="#0C0C0B"/>
<path d="M37.7439 51.0738V56.4595H57.8784V51.0738H51.0623V26.6157H45.5831C44.989 29.745 42.1339 32.1826 37.7439 32.232V36.2342H44.7414V51.0738H37.7439Z" fill="#0C0C0B"/>
<path d="M37.7439 36.2342H18.7977V41.3894H37.7439V36.2342Z" fill="#0C0C0B"/>
<path d="M30.8454 48.241V29.3333H25.6797V48.241H30.8454Z" fill="#0C0C0B"/>
<path d="M40.5 0C38.9156 0 35.1858 0.345872 33.684 0.988207C34.1461 1.54819 34.5917 2.15758 35.0043 2.83286C36.044 4.56222 36.6546 6.32452 36.9847 8.00447C38.2555 7.8233 39.5098 7.70801 40.5 7.70801C58.5715 7.70801 73.2763 22.4158 73.2763 40.5C73.2763 58.5842 58.5715 73.292 40.5 73.292C22.4285 73.292 7.72372 58.5842 7.72372 40.5H0C0 62.8335 18.1705 81 40.5 81C62.8295 81 81 62.8335 81 40.5C81 18.1665 62.8295 0 40.5 0Z" fill="#0C0C0B"/>
</svg>
