<svg width="629" height="100" viewBox="0 0 629 100" fill="none" xmlns="http://www.w3.org/2000/svg">
<g clip-path="url(#clip0_24_3653)">
<path d="M153.128 60.5482C153.128 72.7522 145.524 81.3478 134.18 81.3478C122.835 81.3478 115.232 72.7522 115.232 60.5482C115.232 48.3441 122.835 39.7485 134.18 39.7485C145.524 39.7485 153.128 48.486 153.128 60.5482ZM174.583 60.5482C174.583 37.6605 156.586 21.0167 134.18 21.0167C111.774 21.0167 93.7762 37.6605 93.7762 60.5482C93.7762 83.4359 111.774 100.08 134.18 100.08C156.586 100.08 174.583 83.4359 174.583 60.5482Z" fill="#0C0C0B"/>
<path d="M218.517 100.08C236.736 100.08 249.405 90.5134 249.405 76.5087C249.405 65.6859 242.166 57.9235 228.664 54.316L214.613 50.5665C212.111 49.8774 206.824 48.479 206.824 43.9188C206.824 40.0275 210.444 37.6765 216.565 37.6765C224.78 37.6765 231.307 41.5678 233.808 48.0736L249.384 40.8584C244.504 28.5156 232.141 21.0167 216.544 21.0167C198.731 21.0167 186.632 30.5829 186.632 44.5876C186.632 54.9848 193.302 63.0309 207.089 66.6385L220.449 70.1042C223.092 70.7933 229.213 72.3134 229.213 77.3194C229.213 81.4742 225.044 84.1089 218.496 84.1089C209.875 84.1089 203.042 79.5285 199.016 71.077L183.562 78.2922C188.3 92.0132 201.924 100.059 218.496 100.059" fill="#0C0C0B"/>
<path d="M261.589 10.5123C261.589 16.0824 266.273 20.7815 271.947 20.7815C277.62 20.7815 282.305 16.0824 282.305 10.5123C282.305 4.94219 277.762 0 271.947 0C266.132 0 261.589 4.69913 261.589 10.5123Z" fill="#0C0C0B"/>
<path d="M282.305 31.0093H261.589V98.3973H282.305V31.0093Z" fill="#0C0C0B"/>
<path d="M336.39 100.059C339.59 100.059 343.361 99.7758 346.153 99.3707V82.1945C344.197 82.4781 342.525 82.6199 341.282 82.6199C332.496 82.6199 328.318 78.8727 328.318 71.1151V40.7529H346.174V22.726H328.318V0H307.404V11.0794C307.404 18.8371 303.083 22.726 295.276 22.726H294.298V40.7529H307.404V71.1151C307.404 88.8584 318.004 100.08 336.41 100.08" fill="#0C0C0B"/>
<path d="M358.443 10.5123C358.443 16.0824 363.127 20.7815 368.801 20.7815C374.474 20.7815 379.159 16.0824 379.159 10.5123C379.159 4.94219 374.616 0 368.801 0C362.986 0 358.443 4.69913 358.443 10.5123Z" fill="#0C0C0B"/>
<path d="M379.159 31.0093H358.443V98.3973H379.159V31.0093Z" fill="#0C0C0B"/>
<path d="M444.284 23.0183L426.981 70.5936L409.698 23.0183H388.074L417.911 98.078H436.05L465.888 23.0183H444.284Z" fill="#0C0C0B"/>
<path d="M519.944 51.1214H488.629C490.687 42.384 496.562 37.6605 504.636 37.6605C513.109 37.6605 519.125 43.0732 519.944 51.1214ZM541.687 58.3385C541.687 37.3969 525.56 21.0167 504.636 21.0167C483.713 21.0167 466.886 37.8024 466.886 60.4063C466.886 83.0101 482.334 100.08 505.995 100.08C521.303 100.08 533.613 92.7207 538.13 81.6316L521.723 73.7253C518.845 78.8543 513.509 82.0573 506.275 82.0573C496.163 82.0573 489.448 75.9553 488.229 66.3867H540.748C541.427 64.2986 541.707 61.3996 541.707 58.3385" fill="#0C0C0B"/>
<path d="M583.607 54.1474V66.0525H628.5V54.1474H613.292V0H601.072C599.73 6.92957 593.366 12.3081 583.607 12.4289V21.2923H599.222V54.1474H583.607Z" fill="#0C0C0B"/>
<path d="M67.78 31.7976C67.78 41.8921 59.2695 47.8479 47.4967 47.8479H32.1575L38.662 18.5335H51.833C62.8358 18.5335 67.78 23.9441 67.78 31.7976ZM89.7654 30.2633C89.7857 12.497 76.4526 0 56.7772 0H21.0128L0 98.078H21.3776L28.2873 66.1996H47.6588C72.4405 66.0381 89.7857 53.7027 89.7857 30.2431" fill="#0C0C0B"/>
<path d="M583.972 21.41H542.016V32.8743H583.972V21.41Z" fill="#0C0C0B"/>
<path d="M568.708 48.1661V6.07646H557.28V48.1661H568.708Z" fill="#0C0C0B"/>
</g>
<defs>
<clipPath id="clip0_24_3653">
<rect width="628.75" height="99.71" fill="white"/>
</clipPath>
</defs>
</svg>
