<svg width="89" height="89" viewBox="0 0 89 89" fill="none" xmlns="http://www.w3.org/2000/svg">
<g clip-path="url(#clip0_138_7481)">
<path d="M44.5 88C19.9724 88 0.0200225 68.0949 0.0200225 43.6255L0 0H89L88.98 43.6255C88.98 68.0949 69.0276 88 44.5 88ZM4.39494 4.37453L4.41496 43.6255C4.41496 65.6779 22.4052 83.6255 44.51 83.6255C66.6148 83.6255 84.6051 65.6779 84.6051 43.6255L84.6251 4.37453H4.39494Z" fill="#0C0C0B"/>
<path d="M66.3946 43.995V44.4245C66.0843 56.1298 56.2632 65.6479 44.5 65.6479C32.7368 65.6479 22.9157 56.1298 22.6154 44.4245V43.995H17.3395V44.4444C17.6598 59.0362 29.8435 70.9014 44.5 70.9014C59.1565 70.9014 71.3402 59.0362 71.6505 44.4444V43.995H66.3946Z" fill="#0C0C0B"/>
<path d="M66.0642 35.0762V14.8115H61.5191C61.0186 17.3983 58.6559 19.4257 55.0318 19.4557V22.7715H60.8384V35.0762H55.0318V39.5306H71.7206V35.0762H66.0642Z" fill="#0C0C0B"/>
<path d="M45.0406 17.0787V22.7815H40.5155C40.5155 22.6517 40.5355 22.5318 40.5355 22.402C40.5355 17.9076 37.1718 14.7516 32.1962 14.7516H23.156L17.8501 39.5705H23.2561L24.9981 31.5006H29.8936C34.2485 31.4707 37.6823 29.9526 39.3843 27.0462H45.0506V32.7491H49.3254V27.0462H55.0418V22.7815H49.3254V17.0787H45.0406ZM29.8435 26.8564H25.9692L27.611 19.4357H30.9348C33.7179 19.4357 34.9693 20.804 34.9693 22.7915C34.9693 25.3483 32.8169 26.8564 29.8435 26.8564Z" fill="#0C0C0B"/>
</g>
<defs>
<clipPath id="clip0_138_7481">
<rect width="88.84" height="88.84" fill="white"/>
</clipPath>
</defs>
</svg>
