<svg width="87" height="87" viewBox="0 0 87 87" fill="none" xmlns="http://www.w3.org/2000/svg">
<path d="M58.14 39.7001V39.6501C58.12 37.7601 56.76 36.0901 54.9 35.6801C54.18 35.5301 53.45 35.5701 52.76 35.7901C52.22 34.6601 51.18 33.8401 49.92 33.5601C49.42 33.4501 48.91 33.4401 48.41 33.5201L50.19 20.5201C50.35 19.3701 50.05 18.2301 49.35 17.3101C48.65 16.3801 47.63 15.7901 46.49 15.6401C45.37 15.4801 44.24 15.7701 43.31 16.4701C42.39 17.1601 41.77 18.2001 41.61 19.3101L39.81 31.7001L37.12 22.6101C36.81 21.5401 36.09 20.6601 35.09 20.1501C34.1 19.6401 32.94 19.5601 31.89 19.9201C30.24 20.4901 29.14 22.0401 29.15 23.7901C29.15 24.0401 29.18 24.2901 29.24 24.6201L31.95 37.1901C30.8 38.3101 30 39.7101 29.62 41.2501C29.38 42.2101 29.24 43.1601 29.17 44.1601C29.16 47.5301 29.68 51.0901 30.78 55.0501C31.34 57.0301 32.71 58.7001 34.55 59.6201C35.01 59.8601 35.32 60.3901 35.32 60.9801L35.36 66.0901C35.36 66.4801 35.52 66.8401 35.79 67.1101C36.06 67.3801 36.42 67.5201 36.8 67.5301C37.18 67.5301 37.54 67.3801 37.81 67.1101C38.09 66.8401 38.24 66.4701 38.24 66.0901L38.22 60.9601C38.21 59.2701 37.3 57.7701 35.85 57.0301C34.74 56.4701 33.9 55.4701 33.57 54.2701C32.54 50.5801 32.05 47.3001 32.06 44.2601C32.11 43.5101 32.23 42.7301 32.42 41.9501C32.71 40.7801 33.39 39.7101 34.34 38.9301L37.46 37.2001L41.07 35.3701L41.12 35.3501H41.14C41.36 35.8001 41.47 36.2901 41.47 36.8201C41.47 37.5901 41.22 38.3501 40.76 38.9501C39.47 40.6101 37.83 41.9901 35.74 43.1801C35.24 43.4601 34.95 44.0201 35.01 44.5901C35.07 45.1601 35.46 45.6501 35.99 45.8201C36.02 45.8301 38.7 46.9601 38.24 52.8101C38.18 53.6101 38.78 54.3101 39.57 54.3701C39.61 54.3701 39.66 54.3701 39.7 54.3701C40.45 54.3701 41.08 53.7801 41.13 53.0301C41.49 48.4701 40.24 45.9201 39 44.5401C40.59 43.4301 41.92 42.1701 43.04 40.7201C43.91 39.6101 44.37 38.2101 44.36 36.7801C44.36 35.8301 44.14 34.9201 43.74 34.0801C43.48 33.5501 43.06 33.1001 42.54 32.8101L44.44 19.7201C44.54 19.0301 45.14 18.5101 45.83 18.5001C45.89 18.5001 45.96 18.5001 46.04 18.5201C46.42 18.5701 46.75 18.7701 46.98 19.0701C47.21 19.3701 47.31 19.7501 47.26 20.1301L45 36.7201L43.75 42.5001C43.52 43.5701 43.72 44.6701 44.32 45.6001C44.92 46.5201 45.83 47.1501 46.91 47.3801L47.46 47.4601C47.52 47.4601 47.58 47.4601 47.65 47.4701H47.69C47.87 47.4701 48.05 47.4701 48.19 47.4501L48.6 47.3901C48.75 47.3501 48.89 47.3101 49.04 47.2601L49.29 47.7001C49.88 48.6301 50.8 49.2601 51.88 49.4901L51.98 49.5101L52.05 49.1301V49.5301L52.57 49.5801C52.64 49.5801 52.71 49.5801 52.77 49.5801C53.27 49.5801 53.78 49.4801 54.24 49.2901C53.96 51.0701 53.61 52.9101 53.15 55.0101C52.98 55.7701 52.44 56.3301 52.01 56.6701C50.82 57.5901 50.14 58.9401 50.15 60.3501L50.18 65.9501C50.18 66.3401 50.34 66.7001 50.61 66.9701C50.87 67.2301 51.21 67.3701 51.58 67.3801H51.66C52.05 67.3801 52.41 67.2201 52.68 66.9501C52.95 66.6701 53.1 66.3101 53.1 65.9201L53.05 60.3201C53.05 59.8201 53.32 59.3201 53.79 58.9501C54.94 58.0401 55.7 56.8901 55.98 55.6201C57.2 50.0201 57.77 45.8101 58.05 40.0601V39.9301L57.67 39.9101L58.06 39.8901V39.6801L58.14 39.7001ZM36.17 34.6101L34.56 35.4301L32.1 24.0501C32.08 23.9601 32.07 23.8701 32.07 23.7701C32.07 23.2701 32.38 22.8301 32.85 22.6701C32.97 22.6301 33.1 22.6001 33.23 22.6001H33.24C33.42 22.6001 33.6 22.6401 33.77 22.7301C34.05 22.8801 34.26 23.1201 34.35 23.4301L37.45 33.9001L36.18 34.6101H36.17ZM50.25 37.8301L49 43.6601L48.98 43.7201C48.79 44.3101 48.18 44.6701 47.57 44.5401C47.26 44.4701 46.99 44.2901 46.82 44.0201C46.65 43.7501 46.59 43.4301 46.65 43.1101L47.9 37.3301C47.97 37.0201 48.15 36.7501 48.42 36.5801C48.61 36.4501 48.84 36.3901 49.06 36.3801H49.07C49.15 36.3801 49.24 36.3801 49.32 36.4101C49.88 36.5301 50.27 37.0101 50.28 37.5701C50.28 37.6601 50.28 37.7501 50.25 37.8401V37.8301ZM53.97 45.7301C53.83 46.3801 53.19 46.7801 52.54 46.6501C52.23 46.5801 51.97 46.4001 51.79 46.1301C51.62 45.8601 51.56 45.5401 51.62 45.2301L52.87 39.4501C52.94 39.1401 53.12 38.8701 53.39 38.6901C53.66 38.5201 53.98 38.4601 54.29 38.5201C54.83 38.6401 55.23 39.1201 55.23 39.6701L53.96 45.7301H53.97Z" fill="#0C0C0B"/>
</svg>
