<svg width="59" height="54" viewBox="0 0 59 54" fill="none" xmlns="http://www.w3.org/2000/svg">
<path d="M58.0301 24.5004C58.0301 32.2104 55.0301 39.4604 49.5801 44.9104C44.1301 50.3604 36.8801 53.3604 29.1701 53.3604C21.4601 53.3604 14.2101 50.3604 8.76006 44.9104C3.31006 39.4604 0.310059 32.2104 0.310059 24.5004H8.00006C8.00006 36.1704 17.5001 45.6704 29.1701 45.6704C40.8401 45.6704 50.3401 36.1704 50.3401 24.5004H58.0301ZM4.56006 12.0504C4.56006 5.92043 9.54006 0.94043 15.6701 0.94043C21.8001 0.94043 26.7801 5.92043 26.7801 12.0504C26.7801 18.1804 21.8001 23.1604 15.6701 23.1604C9.54006 23.1604 4.56006 18.1804 4.56006 12.0504ZM12.2501 12.0504C12.2501 13.9304 13.7801 15.4704 15.6701 15.4704C17.5601 15.4704 19.0901 13.9404 19.0901 12.0504C19.0901 10.1604 17.5601 8.63043 15.6701 8.63043C13.7801 8.63043 12.2501 10.1604 12.2501 12.0504ZM31.5501 12.0504C31.5501 5.92043 36.5301 0.94043 42.6601 0.94043C48.7901 0.94043 53.7701 5.92043 53.7701 12.0504C53.7701 18.1804 48.7901 23.1604 42.6601 23.1604C36.5301 23.1604 31.5501 18.1804 31.5501 12.0504ZM39.2401 12.0504C39.2401 13.9304 40.7701 15.4704 42.6601 15.4704C44.5501 15.4704 46.0801 13.9404 46.0801 12.0504C46.0801 10.1604 44.5501 8.63043 42.6601 8.63043C40.7701 8.63043 39.2401 10.1604 39.2401 12.0504Z" fill="#1D1D1B"/>
</svg>
