<svg width="50" height="52" viewBox="0 0 50 52" fill="none" xmlns="http://www.w3.org/2000/svg">
<path d="M43.57 16.6003C47.36 19.3303 49.7 23.7804 49.7 28.5404C49.7 36.2304 43.76 42.5603 36.24 43.1803V51.8004H14.17V43.2303C6.72998 43.1303 0.709961 37.0504 0.709961 29.5804C0.709961 23.3904 4.85996 18.1404 10.52 16.4804C10.74 7.56035 18.03 0.360352 27.05 0.360352C36.07 0.360352 43.42 7.62035 43.58 16.5903L43.57 16.6003ZM42 28.5404C42 25.8304 40.42 23.3404 37.96 22.1904L35.37 20.9804L35.78 18.1504C35.84 17.7404 35.87 17.3104 35.87 16.8904C35.87 12.0204 31.91 8.05035 27.03 8.05035C22.15 8.05035 18.19 12.0104 18.19 16.8904C18.19 17.5704 18.27 18.2504 18.42 18.9004L19.56 23.8103L14.52 23.6204C14.46 23.6204 14.4 23.6204 14.33 23.6204C11.05 23.6204 8.37997 26.2904 8.37997 29.5804C8.37997 32.8704 11.05 35.5404 14.33 35.5404C15.1 35.5404 15.85 35.4004 16.55 35.1104L21.84 32.9804V44.1004H28.52V34.1404L33.29 35.3304C33.84 35.4704 34.41 35.5404 34.98 35.5404C38.84 35.5404 41.98 32.4004 41.98 28.5404H42Z" fill="#1D1D1B"/>
</svg>
