<svg width="53" height="53" viewBox="0 0 53 53" fill="none" xmlns="http://www.w3.org/2000/svg">
<path d="M52.4901 26.5701C52.4901 40.9701 40.8201 52.6901 26.4501 52.7701C26.4001 52.7701 26.3401 52.7701 26.2901 52.7701C26.2401 52.7701 26.1801 52.7701 26.1301 52.7701C11.7501 52.6801 0.0900879 40.9601 0.0900879 26.5701C0.0900879 12.1801 11.7601 0.450117 26.1301 0.370117C26.1801 0.370117 26.2401 0.370117 26.2901 0.370117C26.3401 0.370117 26.4001 0.370117 26.4501 0.370117C40.8301 0.460117 52.4901 12.1801 52.4901 26.5701ZM7.94009 29.0401H14.3601C14.3301 28.2201 14.3101 27.4001 14.3101 26.5701C14.3101 25.7901 14.3201 25.0001 14.3501 24.2301H7.9201C7.82011 25.0001 7.77008 25.7801 7.77008 26.5701C7.77008 27.4101 7.83008 28.2301 7.93008 29.0401H7.94009ZM16.4301 10.9101C14.1501 12.3501 12.2001 14.2801 10.7401 16.5401H15.1201C15.4601 14.5301 15.9001 12.6401 16.4401 10.9101H16.4301ZM10.8201 36.7301C12.2801 38.9401 14.1901 40.8201 16.4301 42.2301C15.9001 40.5401 15.4701 38.6901 15.1301 36.7301H10.8201ZM30.5701 26.5701C30.5701 25.7801 30.5501 25.0001 30.5201 24.2301H22.0501C22.0201 25.0001 22.0001 25.7801 22.0001 26.5701C22.0001 27.4001 22.0201 28.2201 22.0501 29.0401H30.5101C30.5501 28.2301 30.5601 27.4001 30.5601 26.5701H30.5701ZM22.9401 16.5401H29.6401C29.4101 15.3701 29.1301 14.2701 28.8201 13.2501C27.8601 10.1501 26.8201 8.71011 26.2901 8.21011C25.7601 8.71011 24.7201 10.1501 23.7601 13.2501C23.4401 14.2701 23.1701 15.3701 22.9401 16.5401ZM29.6101 36.7301H22.9601C23.1901 37.8501 23.4501 38.9101 23.7601 39.8901C24.7201 42.9901 25.7601 44.4301 26.2901 44.9301C26.8201 44.4301 27.8601 42.9901 28.8201 39.8901C29.1201 38.9101 29.3901 37.8501 29.6201 36.7301H29.6101ZM41.8401 16.5401C40.3701 14.2801 38.4301 12.3501 36.1501 10.9101C36.6901 12.6401 37.1301 14.5301 37.4701 16.5401H41.8501H41.8401ZM41.7601 36.7301H37.4501C37.1201 38.6901 36.6801 40.5401 36.1501 42.2301C38.3901 40.8201 40.3001 38.9401 41.7601 36.7301ZM44.8101 26.5701C44.8101 25.7801 44.7601 25.0001 44.6601 24.2301H38.2301C38.2601 25.0001 38.2701 25.7801 38.2701 26.5701C38.2701 27.4001 38.2501 28.2201 38.2201 29.0401H44.6401C44.7501 28.2301 44.8101 27.4101 44.8101 26.5701Z" fill="#1D1D1B"/>
</svg>
