<svg width="52" height="53" viewBox="0 0 52 53" fill="none" xmlns="http://www.w3.org/2000/svg">
<path d="M26.22 52.2496C12.05 52.2496 0.52002 40.7196 0.52002 26.5496C0.52002 12.3796 12.05 0.849609 26.22 0.849609C40.39 0.849609 51.92 12.3796 51.92 26.5496V52.2496H26.22ZM26.22 8.54961C16.29 8.54961 8.22003 16.6296 8.22003 26.5496C8.22003 36.4696 16.3 44.5496 26.22 44.5496H44.22V26.5496C44.22 16.6196 36.14 8.54961 26.22 8.54961ZM40.49 26.5496H32.8C32.8 22.9196 29.85 19.9696 26.22 19.9696V12.2796C34.09 12.2796 40.49 18.6796 40.49 26.5496Z" fill="#1D1D1B"/>
</svg>
