<svg width="52" height="53" viewBox="0 0 52 53" fill="none" xmlns="http://www.w3.org/2000/svg">
<path d="M26.2 52.2496H0.5V26.5496C0.5 12.3796 12.03 0.849609 26.2 0.849609C40.37 0.849609 51.9 12.3796 51.9 26.5496C51.9 40.7196 40.37 52.2496 26.2 52.2496ZM8.20001 44.5596H26.2C36.13 44.5596 44.2 36.4796 44.2 26.5596C44.2 16.6396 36.12 8.5596 26.2 8.5596C16.28 8.5596 8.20001 16.6396 8.20001 26.5596V44.5596ZM26.2 40.8296V33.1396C29.83 33.1396 32.78 30.1896 32.78 26.5596H40.48C40.48 34.4296 34.08 40.8296 26.21 40.8296H26.2Z" fill="#1D1D1B"/>
</svg>
