<svg width="53" height="53" viewBox="0 0 53 53" fill="none" xmlns="http://www.w3.org/2000/svg">
<path d="M4.91003 31.48C1.49003 31.71 0.590032 30.29 0.410032 27.71C0.240032 25.21 1.15002 23.73 4.04002 23.5L4.26002 26.72C3.53002 26.78 3.30002 27.07 3.34002 27.52C3.37002 28 3.62003 28.26 4.69003 28.19C5.76003 28.12 5.97003 27.81 5.94003 27.33C5.91003 26.88 5.68003 26.62 4.88003 26.65L4.66003 23.43C7.78003 23.28 8.69003 24.64 8.86003 27.14C9.04003 29.72 8.33003 31.25 4.91003 31.49V31.48ZM8.72003 22.37L1.17003 19.33L3.65002 13.18L5.78003 14.04L4.50003 17.21L5.22003 17.5L6.39003 14.59L7.98002 15.23L6.81003 18.14L7.66003 18.48L8.94003 15.31L11.2 16.22L9.92003 19.39L8.72003 22.37ZM12.55 42.57L11.28 43.71L9.31003 41.52L6.86003 43.72L4.71003 41.34L10.76 35.9L15.07 40.69L13.37 42.22L11.21 39.82L10.58 40.38L12.55 42.57ZM11.7 15.32L6.24003 9.28L9.68002 6.17C10.92 5.05 12.31 4.41 13.49 5.71C14.26 6.57 13.98 7.6 13.35 8.18L13.05 8.45L13.32 8.75L13.62 8.48C14.27 7.89 15.2 7.8 15.84 8.51L16.95 9.74C17.1 9.9 17.23 9.97 17.44 10.12L15.06 12.27C14.89 12.2 14.72 12.05 14.55 11.87L13.51 10.72C13.23 10.41 12.91 10.36 12.57 10.67L12.15 11.05L14.07 13.17L11.69 15.32H11.7ZM11.44 8.43C11.16 8.12 10.85 8.08 10.59 8.31L10.1 8.75L10.98 9.73L11.47 9.29C11.73 9.05 11.72 8.74 11.44 8.43ZM21.96 46.37C21.5 47.43 20.44 47.61 19.66 47.27L19.29 47.11L19.13 47.48L19.5 47.64C20.31 47.99 20.77 48.79 20.39 49.67L19.73 51.19C19.64 51.39 19.63 51.54 19.58 51.8L16.63 50.53C16.63 50.35 16.69 50.13 16.78 49.9L17.39 48.48C17.55 48.1 17.47 47.78 17.05 47.6L16.53 47.38L15.4 50L12.45 48.73L15.68 41.26L19.94 43.1C21.47 43.76 22.63 44.77 21.94 46.37H21.96ZM38.03 19.81L31.88 25.96L38.03 32.11L32.59 37.55L26.44 31.4L20.29 37.55L14.85 32.11L21 25.96L14.85 19.81L20.29 14.37L26.44 20.52L32.59 14.37L38.03 19.81ZM16.49 4.66L15.74 2.07L22.71 0.0500031L23.46 2.64L21.52 3.2L23.03 8.43L19.95 9.32L18.44 4.09L16.5 4.65L16.49 4.66ZM18.38 44.8L17.77 44.54L17.25 45.75L17.86 46.01C18.18 46.15 18.46 46.01 18.63 45.63C18.8 45.24 18.71 44.95 18.38 44.81V44.8ZM30.72 49.79L30.82 52.22L27.4 52.37L24.19 52.51L23.84 44.38L30.46 44.1L30.56 46.39L27.14 46.54L27.17 47.32L30.31 47.19L30.38 48.9L27.24 49.03L27.28 49.95L30.7 49.8L30.72 49.79ZM28.95 8.29L25.75 8.13L26.17 0L29.37 0.159996L28.95 8.29ZM33.14 9.5L30.16 8.31L33.19 0.760002L39.17 3.16L38.32 5.29L35.32 4.09L35.01 4.87L37.75 5.97L37.11 7.56L34.37 6.46L33.14 9.52V9.5ZM38.08 44.38C39.17 43.95 40.46 44.21 41.02 45.29C41.74 46.66 41.43 48.12 38.71 49.54C35.76 51.08 34.61 50.23 33.77 48.62L33.65 48.39L36.6 46.85L36.72 47.08C37.02 47.66 37.39 47.43 37.67 47.29C37.93 47.15 38.08 46.93 37.91 46.6C37.69 46.19 37.31 46.27 36.97 46.41L35.28 47.07C34.14 47.52 33.11 47.2 32.54 46.1C32.11 45.28 31.62 43.71 34.8 42.04C37.91 40.41 39.08 41.85 39.63 42.9L39.73 43.1L36.81 44.63L36.71 44.43C36.43 43.89 36.07 44 35.85 44.12C35.63 44.24 35.44 44.46 35.61 44.79C35.8 45.14 36.13 45.15 36.47 45.01L38.08 44.38ZM39.17 13.48L36.73 11.4L42.01 5.21L44.45 7.29L39.17 13.48ZM43.51 33.53L50.13 38.27L48.26 40.88L45.8 39.12L45.13 40.05L47.59 41.81L45.72 44.42L39.1 39.68L40.97 37.07L43.29 38.73L43.96 37.8L41.64 36.14L43.51 33.53ZM40.15 14.21L47.18 10.12L50.51 15.85L48.53 17L46.81 14.04L46.14 14.43L47.72 17.14L46.24 18L44.66 15.29L43.86 15.75L45.58 18.71L43.48 19.93L41.76 16.97L40.15 14.2V14.21ZM48.51 28.29C45 28.55 44.31 26.81 44.21 25.41L43.88 20.89L51.99 20.29L52.33 24.89C52.52 27.51 50.62 28.14 48.51 28.29ZM48.26 25C49.15 24.94 49.64 24.81 49.6 24.17L49.56 23.69L46.99 23.88L47.03 24.38C47.06 24.78 47.35 25.07 48.27 25H48.26Z" fill="#1D1D1B"/>
</svg>
