<svg width="88" height="53" viewBox="0 0 88 53" fill="none" xmlns="http://www.w3.org/2000/svg">
<path d="M87.0699 26.6001L85.9599 28.5301C81.7599 35.7801 75.7299 41.8701 68.5099 46.1201C61.0699 50.5101 52.5499 52.8301 43.8599 52.8301C35.1699 52.8301 26.6499 50.5101 19.2099 46.1201C11.9899 41.8601 5.9599 35.7801 1.7599 28.5301L0.649902 26.6001L1.7599 24.6701C5.9599 17.4201 11.9899 11.3301 19.2099 7.08012C26.6499 2.69012 35.1699 0.370117 43.8599 0.370117C52.5499 0.370117 61.0699 2.69012 68.5099 7.08012C75.7299 11.3401 81.7599 17.4201 85.9599 24.6701L87.0699 26.6001ZM78.1099 26.6001C74.6599 21.3401 70.0299 16.9101 64.5999 13.7101C58.3399 10.0201 51.1699 8.07011 43.8599 8.07011C36.5499 8.07011 29.3799 10.0201 23.1199 13.7101C17.6899 16.9101 13.0599 21.3401 9.6099 26.6001C13.0599 31.8601 17.6899 36.2901 23.1199 39.4901C29.3799 43.1801 36.5499 45.1301 43.8599 45.1301C51.1699 45.1301 58.3399 43.1801 64.5999 39.4901C70.0299 36.2901 74.6599 31.8601 78.1099 26.6001ZM28.5099 26.6001C28.5099 18.1201 35.3799 11.2501 43.8599 11.2501C52.3399 11.2501 59.2099 18.1201 59.2099 26.6001C59.2099 35.0801 52.3399 41.9501 43.8599 41.9501C35.3799 41.9501 28.5099 35.0801 28.5099 26.6001Z" fill="#1D1D1B"/>
</svg>
