<svg width="88" height="54" viewBox="0 0 88 54" fill="none" xmlns="http://www.w3.org/2000/svg">
<path d="M19.55 46.5498C12.33 42.2898 6.29999 36.2098 2.09999 28.9598L0.98999 27.0298L2.09999 25.0998C6.29999 17.8498 12.33 11.7598 19.55 7.5098C26.99 3.1198 35.51 0.799805 44.2 0.799805C52.89 0.799805 61.41 3.1198 68.85 7.5098C76.07 11.7698 82.1 17.8498 86.3 25.0998L87.41 27.0298L86.3 28.9598C82.1 36.2098 76.07 42.2998 68.85 46.5498C61.41 50.9398 52.88 53.2598 44.2 53.2598C35.52 53.2598 26.99 50.9398 19.55 46.5498ZM9.94998 27.0298C13.4 32.2898 18.03 36.7198 23.46 39.9198C29.72 43.6098 36.89 45.5598 44.2 45.5598C51.51 45.5598 58.68 43.6098 64.94 39.9198C70.37 36.7198 75 32.2898 78.45 27.0298C75 21.7698 70.37 17.3398 64.94 14.1398C58.68 10.4498 51.51 8.4998 44.2 8.4998C36.89 8.4998 29.72 10.4498 23.46 14.1398C18.03 17.3398 13.4 21.7698 9.94998 27.0298ZM44.2 44.0898C34.32 44.0898 27.14 36.9198 27.14 27.0298C27.14 17.1398 34.31 9.9698 44.2 9.9698C54.09 9.9698 61.26 17.1398 61.26 27.0298C61.26 36.9198 54.09 44.0898 44.2 44.0898ZM44.2 17.6698C41.35 17.6698 38.97 18.5898 37.3 20.3398C35.71 22.0098 34.83 24.3798 34.83 27.0298C34.83 29.6798 35.71 32.0498 37.3 33.7198C38.97 35.4698 41.35 36.3898 44.2 36.3898C47.05 36.3898 49.43 35.4698 51.1 33.7198C52.69 32.0498 53.57 29.6798 53.57 27.0298C53.57 24.3798 52.69 22.0098 51.1 20.3398C49.43 18.5898 47.05 17.6698 44.2 17.6698Z" fill="#1D1D1B"/>
</svg>
