<svg width="53" height="54" viewBox="0 0 53 54" fill="none" xmlns="http://www.w3.org/2000/svg">
<path d="M52.47 27.2005C52.47 33.0105 50.69 36.1305 43.18 36.1305C39.96 36.1305 37.79 35.5605 36.37 34.4405C33.02 32.3505 31.93 29.0105 27.53 28.4705C28.08 32.9905 31.59 34.0205 33.66 37.5905C34.66 39.0105 35.18 41.1105 35.18 44.1305C35.18 51.6405 31.9401 53.4205 26.2601 53.4205C20.5801 53.4205 17.33 51.6405 17.33 44.1305C17.33 40.9105 17.9 38.7405 19.0201 37.3205C21.1101 33.9705 24.4501 32.8805 24.9901 28.4805C20.4701 29.0305 19.44 32.5405 15.87 34.6105C14.45 35.6105 12.35 36.1305 9.33005 36.1305C1.82005 36.1305 0.0400391 32.8905 0.0400391 27.2005C0.0400391 21.5105 1.82005 18.2705 9.33005 18.2705C12.55 18.2705 14.72 18.8405 16.14 19.9605C19.49 22.0505 20.58 25.3905 24.98 25.9305C24.43 21.4105 20.9201 20.3805 18.8501 16.8105C17.8501 15.3905 17.33 13.2905 17.33 10.2705C17.33 2.76047 20.5701 0.980469 26.2601 0.980469C31.9501 0.980469 35.18 2.76047 35.18 10.2705C35.18 13.4905 34.61 15.6605 33.49 17.0805C31.4 20.4305 28.06 21.5205 27.52 25.9205C32.04 25.3705 33.0701 21.8605 36.6401 19.7905C38.0601 18.7905 40.1501 18.2705 43.1701 18.2705C50.6801 18.2705 52.46 21.5105 52.46 27.2005H52.47Z" fill="#1D1D1B"/>
</svg>
