<svg width="79" height="55" viewBox="0 0 79 55" fill="none" xmlns="http://www.w3.org/2000/svg">
<path d="M78.6299 27.27C78.6299 42.31 66.3999 54.54 51.3599 54.54C47.1699 54.54 43.1999 53.59 39.6499 51.89C36.0999 53.59 32.1299 54.54 27.9399 54.54C12.8999 54.54 0.669922 42.31 0.669922 27.27C0.669922 12.23 12.8999 0 27.9399 0C32.1299 0 36.0999 0.95 39.6499 2.65C43.1999 0.95 47.1699 0 51.3599 0C66.3999 0 78.6299 12.23 78.6299 27.27ZM31.9699 46.43C27.0999 41.5 24.0899 34.73 24.0899 27.27C24.0899 19.81 27.0999 13.04 31.9699 8.11C30.6699 7.84 29.3199 7.69 27.9399 7.69C17.1499 7.69 8.35989 16.47 8.35989 27.27C8.35989 38.07 17.1399 46.85 27.9399 46.85C29.3199 46.85 30.6699 46.7 31.9699 46.43ZM47.5099 27.27C47.5099 20.86 44.4199 15.17 39.6499 11.59C34.8799 15.16 31.7899 20.86 31.7899 27.27C31.7899 33.68 34.8799 39.37 39.6499 42.95C44.4199 39.38 47.5099 33.68 47.5099 27.27ZM70.9299 27.27C70.9299 16.48 62.1499 7.69 51.3499 7.69C49.9699 7.69 48.6199 7.84 47.3199 8.11C52.1899 13.04 55.1999 19.81 55.1999 27.27C55.1999 34.73 52.1899 41.5 47.3199 46.43C48.6199 46.7 49.9699 46.85 51.3499 46.85C62.1399 46.85 70.9299 38.07 70.9299 27.27Z" fill="#1D1D1B"/>
</svg>
