<svg width="87" height="87" viewBox="0 0 87 87" fill="none" xmlns="http://www.w3.org/2000/svg">
<path d="M31.46 67.82C30.82 67.82 30.3 67.32 30.27 66.68L30.03 60.59C30.01 60.02 29.85 59.49 29.56 59.02L25.11 51.99C24.55 51.11 24.21 50.09 24.14 49.05L22.99 33.58C22.99 33.52 22.99 33.47 22.99 33.41C23.08 30.95 24.02 28.66 25.63 26.96C26.74 25.78 27.9 25.18 29.08 25.18C29.65 25.18 30.2 25.26 30.73 25.41C31.86 23.96 33.59 23.1 35.47 23.1C36.21 23.1 36.94 23.24 37.62 23.5C38.69 21.73 40.62 20.61 42.75 20.61C43.43 20.61 44.09 20.72 44.73 20.94C45.91 19.36 47.72 18.47 49.58 18.62C52.6 18.86 54.95 21.62 56.22 26.4C56.89 26.83 57.96 27.75 59.81 29.89C62.14 32.59 63.78 37.22 63.72 40.92C63.7 42.04 63.34 43.12 62.67 44.05L51.98 58.96C51.61 59.48 51.41 60.09 51.41 60.73V66.63C51.41 67.29 50.88 67.82 50.22 67.82C49.56 67.82 49.03 67.29 49.03 66.63V60.73C49.03 59.59 49.38 58.5 50.05 57.57L60.74 42.66C61.12 42.12 61.33 41.51 61.34 40.88C61.39 37.82 59.93 33.67 58.01 31.45C56.24 29.4 55.34 28.67 54.94 28.41L43.95 29.25C43.87 29.25 43.83 29.3 43.8 29.34C43.77 29.39 43.76 29.44 43.77 29.49C44.39 31.62 46.46 33.14 48.86 33.27C48.9 33.27 48.95 33.27 48.99 33.27C49.06 33.27 49.14 33.27 49.21 33.27L52.09 33.14C52.53 33.11 52.92 33.33 53.15 33.69L55.85 37.92C56.08 38.29 56.1 38.75 55.89 39.13C55.68 39.51 55.28 39.75 54.85 39.75C49.44 39.75 41.46 45.62 41.46 50.89C41.46 51.55 40.93 52.08 40.27 52.08C39.61 52.08 39.08 51.55 39.08 50.89C39.08 44.85 46.51 38.73 52.8 37.56L51.51 35.54L50.11 35.6C49.94 37.53 48.62 39.23 46.68 39.84C45.43 40.23 44.1 40.11 42.94 39.5C42.83 39.44 42.73 39.38 42.62 39.32C42.57 39.43 42.52 39.54 42.46 39.65C41.85 40.81 40.82 41.67 39.57 42.06C38.1 42.52 36.59 42.25 35.4 41.46C34.85 42.51 33.93 43.28 32.81 43.63C31.69 43.98 30.51 43.87 29.47 43.33C28.43 42.78 27.66 41.86 27.31 40.74C27.12 40.11 27.47 39.45 28.09 39.25C28.72 39.06 29.38 39.41 29.58 40.03C29.74 40.55 30.09 40.97 30.57 41.22C31.05 41.47 31.59 41.52 32.1 41.36C32.62 41.2 33.04 40.85 33.29 40.37C33.54 39.89 33.59 39.35 33.43 38.84C33.43 38.82 33.42 38.79 33.41 38.77L30.22 27.74C29.85 27.62 29.47 27.56 29.08 27.56C28.6 27.56 28 27.92 27.37 28.59C26.17 29.86 25.46 31.58 25.38 33.43L26.53 48.88C26.58 49.53 26.79 50.17 27.14 50.72L31.59 57.75C32.11 58.58 32.4 59.53 32.43 60.51L32.67 66.58C32.7 67.24 32.19 67.79 31.53 67.82C31.51 67.82 31.5 67.82 31.48 67.82H31.46ZM35.7 38.17C36.13 39.48 37.54 40.21 38.86 39.8C39.51 39.6 40.04 39.16 40.35 38.56C40.66 37.97 40.72 37.3 40.54 36.66C40.54 36.66 40.54 36.64 40.54 36.63L37.17 25.91C36.65 25.63 36.07 25.48 35.47 25.48C34.27 25.48 33.17 26.06 32.5 27.03L35.72 38.15L35.7 38.17ZM42.78 35.89C42.78 35.89 42.78 35.92 42.79 35.93C42.99 36.58 43.43 37.11 44.03 37.42C44.63 37.74 45.31 37.8 45.96 37.6C46.92 37.3 47.59 36.48 47.72 35.54C44.74 35.01 42.29 32.95 41.48 30.17C41.26 29.43 41.39 28.63 41.83 27.99C42.27 27.35 42.98 26.94 43.75 26.88L45.25 26.76L44.17 23.29C43.72 23.09 43.23 22.99 42.73 22.99C41.27 22.99 39.98 23.85 39.41 25.16L42.77 35.87L42.78 35.89ZM46.46 22.61L47.69 26.58L53.64 26.12C52.97 24.03 51.64 21.18 49.38 21C48.14 20.9 47.07 21.69 46.46 22.61Z" fill="#0C0C0B"/>
</svg>